# xmcd
#
# Track frame offsets: 
#        150
#        20063
#        43449
#        65812
#        84949
#        105004
#        135547
#        152905
#        173679
#        195741
#        215348
#        238186
#        283324
#
# Disc length: 4705 seconds
#
# Revision: 1
# Processed by: cddbd v1.5.2PL0 Copyright (c) Steve Scherf et al.
# Submitted via: ExactAudioCopy v0.99pb4
#
DISCID=bb125f0d
DTITLE=Glenn Hughes - Soul Mover
DYEAR=2005
DGENRE=General Hard Rock
TTITLE0=Soul Mover
TTITLE1=She Moves Ghostly
TTITLE2=High Road
TTITLE3=Orion
TTITLE4=Change Yourself
TTITLE5=Let It Go
TTITLE6=Dark Star
TTITLE7=Isolation
TTITLE8=Land Of The Livin' (Wonderland)
TTITLE9=Miss Little Insane
TTITLE10=Last Mistake
TTITLE11=Don't Let Me Bleed
TTITLE12=Data (Bonus Multimedia)
EXTD=
EXTT0=
EXTT1=
EXTT2=
EXTT3=
EXTT4=
EXTT5=
EXTT6=
EXTT7=
EXTT8=
EXTT9=
EXTT10=
EXTT11=
EXTT12=
PLAYORDER=
